<?xml version="1.0" encoding="iso-8859-1"?>
<svg version="1.1" xmlns="http://www.w3.org/2000/svg" xmlns:xlink="http://www.w3.org/1999/xlink" x="0px" y="0px"
	 viewBox="0 0 502.707 502.707" style="enable-background:new 0 0 502.707 502.707;" xml:space="preserve">
<g>
	<g>
		<g>
			<path style="fill:#fff;" d="M502.707,313.229c0-23.793-17.257-45.924-47.111-64.842V22.002H0V323.95h417.395
				c-18.68,29.617-79.726,48.815-152.678,63.548l-10.98-53.043L147.048,436.679l136.91,44.026l-9.836-47.607
				C406.588,416.596,502.707,369.529,502.707,313.229z M401.605,53.474C356.953,83.716,238.4,163.981,227.766,171.186
				c-10.548-7.205-129.058-87.47-173.753-117.712H401.605z M23.879,61.887L227.787,199.94L431.674,61.887v173.429
				c-38.137-18.421-89.281-32.766-148.278-40.941c67.819,21.269,134.645,68.725,139.541,105.783H23.879
				C23.879,300.157,23.879,61.887,23.879,61.887z"/>
		</g>
	</g>
</g>
</svg>
